<?xml version="1.0" encoding="utf-8"?>
<!-- Generator: Adobe Illustrator 25.2.0, SVG Export Plug-In . SVG Version: 6.00 Build 0)  -->
<svg version="1.1" id="圖層_1" xmlns="http://www.w3.org/2000/svg" xmlns:xlink="http://www.w3.org/1999/xlink" x="0px" y="0px"
	 viewBox="0 0 47.8 47.8" style="enable-background:new 0 0 47.8 47.8;" xml:space="preserve">
<style type="text/css">
	.st0{fill:#FFFFFF;}
</style>
<g>
	<path class="st0" d="M23.9,0C10.7,0,0,10.7,0,23.9s10.7,23.9,23.9,23.9s23.9-10.7,23.9-23.9S37.1,0,23.9,0 M23.9,44.3
		c-11.3,0-20.4-9.1-20.4-20.4S12.6,3.5,23.9,3.5s20.4,9.1,20.4,20.4S35.2,44.3,23.9,44.3"/>
	<path class="st0" d="M23.9,5.3c-10.3,0-18.6,8.3-18.6,18.6s8.3,18.6,18.6,18.6s18.6-8.3,18.6-18.6C42.5,13.7,34.2,5.3,23.9,5.3
		 M23.9,41.6c-9.7,0-17.6-7.9-17.6-17.6S14.2,6.4,23.9,6.4S41.5,14.3,41.5,24C41.6,33.7,33.7,41.6,23.9,41.6"/>
	<path class="st0" d="M35.8,15.3v-3.9H12.1v0.5v3.5v17.3v2.9v1h23.7v-3.9H31v-1.8h4.8v-3.6H31v-1.6h4.8v-3.6H31v-1.7h4.8v-3.6H31
		v-1.6h4.8V15.3z M27,16.8h-3.9v3.6H27v1.7h-3.9v3.6H27v1.6h-3.9v3.6H27v1.8H16V15.3h11V16.8z"/>
	<rect x="17.7" y="16.8" class="st0" width="3.9" height="14.2"/>
</g>
</svg>
